<svg xmlns="http://www.w3.org/2000/svg" viewBox="0 0 900 420" width="900" height="420">
<defs><linearGradient id="tbg" x1="0%" y1="0%" x2="0%" y2="100%">
<stop offset="0%" stop-color="#0d1117"/><stop offset="100%" stop-color="#161b22"/>
</linearGradient></defs>
<rect width="900" height="420" rx="12" fill="url(#tbg)"/>
<text x="450.0" y="28" text-anchor="middle" fill="#e6edf3" font-size="16" font-weight="bold">Awesome Claw 收录趋势</text>
<text x="450.0" y="46" text-anchor="middle" fill="#8b949e" font-size="12">总收录 2087 · 累计新增 2087 · Stars 2,774,223</text>
<text x="62" y="340.0" text-anchor="end" fill="#8b949e" font-size="11" dominant-baseline="middle">0</text>
<line x1="70" y1="340.0" x2="870" y2="340.0" stroke="#21262d" stroke-dasharray="4 4"/>
<text x="62" y="268.9" text-anchor="end" fill="#8b949e" font-size="11" dominant-baseline="middle">521</text>
<line x1="70" y1="268.9" x2="870" y2="268.9" stroke="#21262d" stroke-dasharray="4 4"/>
<text x="62" y="197.6" text-anchor="end" fill="#8b949e" font-size="11" dominant-baseline="middle">1043</text>
<line x1="70" y1="197.6" x2="870" y2="197.6" stroke="#21262d" stroke-dasharray="4 4"/>
<text x="62" y="126.3" text-anchor="end" fill="#8b949e" font-size="11" dominant-baseline="middle">1565</text>
<line x1="70" y1="126.3" x2="870" y2="126.3" stroke="#21262d" stroke-dasharray="4 4"/>
<text x="62" y="55.0" text-anchor="end" fill="#8b949e" font-size="11" dominant-baseline="middle">2087</text>
<line x1="70" y1="55.0" x2="870" y2="55.0" stroke="#21262d" stroke-dasharray="4 4"/>

<line x1="70" y1="55" x2="70" y2="340" stroke="#30363d"/>
<line x1="70" y1="340" x2="870" y2="340" stroke="#30363d"/>
<path d="M70.0,136.0 L102.0,132.3 L134.0,128.2 L166.0,125.2 L198.0,122.1 L230.0,118.5 L262.0,115.5 L294.0,111.8 L326.0,106.8 L358.0,102.1 L390.0,98.8 L422.0,96.7 L454.0,94.5 L486.0,92.7 L518.0,89.5 L550.0,85.9 L582.0,83.0 L614.0,80.5 L646.0,78.1 L678.0,76.2 L710.0,74.4 L742.0,64.3 L774.0,61.8 L806.0,59.6 L838.0,57.0 L870.0,55.0 L870.0,340 L70.0,340 Z" fill="#58a6ff" opacity="0.12"/>
<polyline points="70.0,136.0 102.0,132.3 134.0,128.2 166.0,125.2 198.0,122.1 230.0,118.5 262.0,115.5 294.0,111.8 326.0,106.8 358.0,102.1 390.0,98.8 422.0,96.7 454.0,94.5 486.0,92.7 518.0,89.5 550.0,85.9 582.0,83.0 614.0,80.5 646.0,78.1 678.0,76.2 710.0,74.4 742.0,64.3 774.0,61.8 806.0,59.6 838.0,57.0 870.0,55.0" fill="none" stroke="#58a6ff" stroke-width="2.5" stroke-linecap="round" stroke-linejoin="round"/>
<circle cx="70.0" cy="136.0" r="3" fill="#58a6ff" stroke="#0d1117" stroke-width="1.5"/>
<circle cx="102.0" cy="132.3" r="3" fill="#58a6ff" stroke="#0d1117" stroke-width="1.5"/>
<circle cx="134.0" cy="128.2" r="3" fill="#58a6ff" stroke="#0d1117" stroke-width="1.5"/>
<circle cx="166.0" cy="125.2" r="3" fill="#58a6ff" stroke="#0d1117" stroke-width="1.5"/>
<circle cx="198.0" cy="122.1" r="3" fill="#58a6ff" stroke="#0d1117" stroke-width="1.5"/>
<circle cx="230.0" cy="118.5" r="3" fill="#58a6ff" stroke="#0d1117" stroke-width="1.5"/>
<circle cx="262.0" cy="115.5" r="3" fill="#58a6ff" stroke="#0d1117" stroke-width="1.5"/>
<circle cx="294.0" cy="111.8" r="3" fill="#58a6ff" stroke="#0d1117" stroke-width="1.5"/>
<circle cx="326.0" cy="106.8" r="3" fill="#58a6ff" stroke="#0d1117" stroke-width="1.5"/>
<circle cx="358.0" cy="102.1" r="3" fill="#58a6ff" stroke="#0d1117" stroke-width="1.5"/>
<circle cx="390.0" cy="98.8" r="3" fill="#58a6ff" stroke="#0d1117" stroke-width="1.5"/>
<circle cx="422.0" cy="96.7" r="3" fill="#58a6ff" stroke="#0d1117" stroke-width="1.5"/>
<circle cx="454.0" cy="94.5" r="3" fill="#58a6ff" stroke="#0d1117" stroke-width="1.5"/>
<circle cx="486.0" cy="92.7" r="3" fill="#58a6ff" stroke="#0d1117" stroke-width="1.5"/>
<circle cx="518.0" cy="89.5" r="3" fill="#58a6ff" stroke="#0d1117" stroke-width="1.5"/>
<circle cx="550.0" cy="85.9" r="3" fill="#58a6ff" stroke="#0d1117" stroke-width="1.5"/>
<circle cx="582.0" cy="83.0" r="3" fill="#58a6ff" stroke="#0d1117" stroke-width="1.5"/>
<circle cx="614.0" cy="80.5" r="3" fill="#58a6ff" stroke="#0d1117" stroke-width="1.5"/>
<circle cx="646.0" cy="78.1" r="3" fill="#58a6ff" stroke="#0d1117" stroke-width="1.5"/>
<circle cx="678.0" cy="76.2" r="3" fill="#58a6ff" stroke="#0d1117" stroke-width="1.5"/>
<circle cx="710.0" cy="74.4" r="3" fill="#58a6ff" stroke="#0d1117" stroke-width="1.5"/>
<circle cx="742.0" cy="64.3" r="3" fill="#58a6ff" stroke="#0d1117" stroke-width="1.5"/>
<circle cx="774.0" cy="61.8" r="3" fill="#58a6ff" stroke="#0d1117" stroke-width="1.5"/>
<circle cx="806.0" cy="59.6" r="3" fill="#58a6ff" stroke="#0d1117" stroke-width="1.5"/>
<circle cx="838.0" cy="57.0" r="3" fill="#58a6ff" stroke="#0d1117" stroke-width="1.5"/>
<circle cx="870.0" cy="55.0" r="3" fill="#58a6ff" stroke="#0d1117" stroke-width="1.5"/>
<path d="M70.0,55.0 L102.0,334.8 L134.0,334.3 L166.0,335.8 L198.0,335.6 L230.0,335.0 L262.0,335.8 L294.0,334.8 L326.0,332.9 L358.0,333.5 L390.0,335.4 L422.0,336.9 L454.0,336.9 L486.0,337.5 L518.0,335.6 L550.0,334.8 L582.0,336.0 L614.0,336.6 L646.0,336.6 L678.0,337.3 L710.0,337.5 L742.0,325.9 L774.0,336.6 L806.0,336.9 L838.0,336.4 L870.0,337.1 L870.0,340 L70.0,340 Z" fill="#3fb950" opacity="0.12"/>
<polyline points="70.0,55.0 102.0,334.8 134.0,334.3 166.0,335.8 198.0,335.6 230.0,335.0 262.0,335.8 294.0,334.8 326.0,332.9 358.0,333.5 390.0,335.4 422.0,336.9 454.0,336.9 486.0,337.5 518.0,335.6 550.0,334.8 582.0,336.0 614.0,336.6 646.0,336.6 678.0,337.3 710.0,337.5 742.0,325.9 774.0,336.6 806.0,336.9 838.0,336.4 870.0,337.1" fill="none" stroke="#3fb950" stroke-width="2.5" stroke-linecap="round" stroke-linejoin="round"/>
<circle cx="70.0" cy="55.0" r="3" fill="#3fb950" stroke="#0d1117" stroke-width="1.5"/>
<circle cx="102.0" cy="334.8" r="3" fill="#3fb950" stroke="#0d1117" stroke-width="1.5"/>
<circle cx="134.0" cy="334.3" r="3" fill="#3fb950" stroke="#0d1117" stroke-width="1.5"/>
<circle cx="166.0" cy="335.8" r="3" fill="#3fb950" stroke="#0d1117" stroke-width="1.5"/>
<circle cx="198.0" cy="335.6" r="3" fill="#3fb950" stroke="#0d1117" stroke-width="1.5"/>
<circle cx="230.0" cy="335.0" r="3" fill="#3fb950" stroke="#0d1117" stroke-width="1.5"/>
<circle cx="262.0" cy="335.8" r="3" fill="#3fb950" stroke="#0d1117" stroke-width="1.5"/>
<circle cx="294.0" cy="334.8" r="3" fill="#3fb950" stroke="#0d1117" stroke-width="1.5"/>
<circle cx="326.0" cy="332.9" r="3" fill="#3fb950" stroke="#0d1117" stroke-width="1.5"/>
<circle cx="358.0" cy="333.5" r="3" fill="#3fb950" stroke="#0d1117" stroke-width="1.5"/>
<circle cx="390.0" cy="335.4" r="3" fill="#3fb950" stroke="#0d1117" stroke-width="1.5"/>
<circle cx="422.0" cy="336.9" r="3" fill="#3fb950" stroke="#0d1117" stroke-width="1.5"/>
<circle cx="454.0" cy="336.9" r="3" fill="#3fb950" stroke="#0d1117" stroke-width="1.5"/>
<circle cx="486.0" cy="337.5" r="3" fill="#3fb950" stroke="#0d1117" stroke-width="1.5"/>
<circle cx="518.0" cy="335.6" r="3" fill="#3fb950" stroke="#0d1117" stroke-width="1.5"/>
<circle cx="550.0" cy="334.8" r="3" fill="#3fb950" stroke="#0d1117" stroke-width="1.5"/>
<circle cx="582.0" cy="336.0" r="3" fill="#3fb950" stroke="#0d1117" stroke-width="1.5"/>
<circle cx="614.0" cy="336.6" r="3" fill="#3fb950" stroke="#0d1117" stroke-width="1.5"/>
<circle cx="646.0" cy="336.6" r="3" fill="#3fb950" stroke="#0d1117" stroke-width="1.5"/>
<circle cx="678.0" cy="337.3" r="3" fill="#3fb950" stroke="#0d1117" stroke-width="1.5"/>
<circle cx="710.0" cy="337.5" r="3" fill="#3fb950" stroke="#0d1117" stroke-width="1.5"/>
<circle cx="742.0" cy="325.9" r="3" fill="#3fb950" stroke="#0d1117" stroke-width="1.5"/>
<circle cx="774.0" cy="336.6" r="3" fill="#3fb950" stroke="#0d1117" stroke-width="1.5"/>
<circle cx="806.0" cy="336.9" r="3" fill="#3fb950" stroke="#0d1117" stroke-width="1.5"/>
<circle cx="838.0" cy="336.4" r="3" fill="#3fb950" stroke="#0d1117" stroke-width="1.5"/>
<circle cx="870.0" cy="337.1" r="3" fill="#3fb950" stroke="#0d1117" stroke-width="1.5"/>
<text x="70.0" y="390" text-anchor="middle" fill="#8b949e" font-size="11">03-02</text>
<text x="166.0" y="390" text-anchor="middle" fill="#8b949e" font-size="11">03-05</text>
<text x="262.0" y="390" text-anchor="middle" fill="#8b949e" font-size="11">03-08</text>
<text x="358.0" y="390" text-anchor="middle" fill="#8b949e" font-size="11">03-11</text>
<text x="454.0" y="390" text-anchor="middle" fill="#8b949e" font-size="11">03-14</text>
<text x="550.0" y="390" text-anchor="middle" fill="#8b949e" font-size="11">03-17</text>
<text x="646.0" y="390" text-anchor="middle" fill="#8b949e" font-size="11">03-20</text>
<text x="742.0" y="390" text-anchor="middle" fill="#8b949e" font-size="11">03-23</text>
<text x="838.0" y="390" text-anchor="middle" fill="#8b949e" font-size="11">03-26</text>

<rect x="640" y="402" width="12" height="12" rx="2" fill="#58a6ff"/>
<text x="656" y="412" fill="#8b949e" font-size="11">总数</text>
<rect x="750" y="402" width="12" height="12" rx="2" fill="#3fb950"/>
<text x="766" y="412" fill="#8b949e" font-size="11">每日新增</text>
</svg>