<svg xmlns="http://www.w3.org/2000/svg" viewBox="0 0 900 420" width="900" height="420">
<defs><linearGradient id="tbg" x1="0%" y1="0%" x2="0%" y2="100%">
<stop offset="0%" stop-color="#0d1117"/><stop offset="100%" stop-color="#161b22"/>
</linearGradient></defs>
<rect width="900" height="420" rx="12" fill="url(#tbg)"/>
<text x="450.0" y="28" text-anchor="middle" fill="#e6edf3" font-size="16" font-weight="bold">Awesome Claw 收录趋势</text>
<text x="450.0" y="46" text-anchor="middle" fill="#8b949e" font-size="12">总收录 3126 · 累计新增 208 · Stars 5,173,615</text>
<text x="62" y="340.0" text-anchor="end" fill="#8b949e" font-size="11" dominant-baseline="middle">0</text>
<line x1="70" y1="340.0" x2="870" y2="340.0" stroke="#21262d" stroke-dasharray="4 4"/>
<text x="62" y="268.8" text-anchor="end" fill="#8b949e" font-size="11" dominant-baseline="middle">781</text>
<line x1="70" y1="268.8" x2="870" y2="268.8" stroke="#21262d" stroke-dasharray="4 4"/>
<text x="62" y="197.5" text-anchor="end" fill="#8b949e" font-size="11" dominant-baseline="middle">1563</text>
<line x1="70" y1="197.5" x2="870" y2="197.5" stroke="#21262d" stroke-dasharray="4 4"/>
<text x="62" y="126.3" text-anchor="end" fill="#8b949e" font-size="11" dominant-baseline="middle">2344</text>
<line x1="70" y1="126.3" x2="870" y2="126.3" stroke="#21262d" stroke-dasharray="4 4"/>
<text x="62" y="55.0" text-anchor="end" fill="#8b949e" font-size="11" dominant-baseline="middle">3126</text>
<line x1="70" y1="55.0" x2="870" y2="55.0" stroke="#21262d" stroke-dasharray="4 4"/>

<line x1="70" y1="55" x2="70" y2="340" stroke="#30363d"/>
<line x1="70" y1="340" x2="870" y2="340" stroke="#30363d"/>
<path d="M70.0,73.1 L97.6,71.5 L125.2,70.5 L152.8,70.0 L180.3,69.6 L207.9,68.9 L235.5,67.7 L263.1,67.5 L290.7,67.0 L318.3,66.4 L345.9,65.8 L373.4,65.3 L401.0,64.8 L428.6,64.5 L456.2,63.9 L483.8,63.0 L511.4,62.3 L539.0,62.0 L566.6,61.4 L594.1,61.0 L621.7,60.6 L649.3,60.1 L676.9,59.6 L704.5,58.9 L732.1,58.5 L759.7,57.6 L787.2,57.1 L814.8,56.8 L842.4,55.7 L870.0,55.0 L870.0,340 L70.0,340 Z" fill="#58a6ff" opacity="0.12"/>
<polyline points="70.0,73.1 97.6,71.5 125.2,70.5 152.8,70.0 180.3,69.6 207.9,68.9 235.5,67.7 263.1,67.5 290.7,67.0 318.3,66.4 345.9,65.8 373.4,65.3 401.0,64.8 428.6,64.5 456.2,63.9 483.8,63.0 511.4,62.3 539.0,62.0 566.6,61.4 594.1,61.0 621.7,60.6 649.3,60.1 676.9,59.6 704.5,58.9 732.1,58.5 759.7,57.6 787.2,57.1 814.8,56.8 842.4,55.7 870.0,55.0" fill="none" stroke="#58a6ff" stroke-width="2.5" stroke-linecap="round" stroke-linejoin="round"/>
<circle cx="70.0" cy="73.1" r="3" fill="#58a6ff" stroke="#0d1117" stroke-width="1.5"/>
<circle cx="97.6" cy="71.5" r="3" fill="#58a6ff" stroke="#0d1117" stroke-width="1.5"/>
<circle cx="125.2" cy="70.5" r="3" fill="#58a6ff" stroke="#0d1117" stroke-width="1.5"/>
<circle cx="152.8" cy="70.0" r="3" fill="#58a6ff" stroke="#0d1117" stroke-width="1.5"/>
<circle cx="180.3" cy="69.6" r="3" fill="#58a6ff" stroke="#0d1117" stroke-width="1.5"/>
<circle cx="207.9" cy="68.9" r="3" fill="#58a6ff" stroke="#0d1117" stroke-width="1.5"/>
<circle cx="235.5" cy="67.7" r="3" fill="#58a6ff" stroke="#0d1117" stroke-width="1.5"/>
<circle cx="263.1" cy="67.5" r="3" fill="#58a6ff" stroke="#0d1117" stroke-width="1.5"/>
<circle cx="290.7" cy="67.0" r="3" fill="#58a6ff" stroke="#0d1117" stroke-width="1.5"/>
<circle cx="318.3" cy="66.4" r="3" fill="#58a6ff" stroke="#0d1117" stroke-width="1.5"/>
<circle cx="345.9" cy="65.8" r="3" fill="#58a6ff" stroke="#0d1117" stroke-width="1.5"/>
<circle cx="373.4" cy="65.3" r="3" fill="#58a6ff" stroke="#0d1117" stroke-width="1.5"/>
<circle cx="401.0" cy="64.8" r="3" fill="#58a6ff" stroke="#0d1117" stroke-width="1.5"/>
<circle cx="428.6" cy="64.5" r="3" fill="#58a6ff" stroke="#0d1117" stroke-width="1.5"/>
<circle cx="456.2" cy="63.9" r="3" fill="#58a6ff" stroke="#0d1117" stroke-width="1.5"/>
<circle cx="483.8" cy="63.0" r="3" fill="#58a6ff" stroke="#0d1117" stroke-width="1.5"/>
<circle cx="511.4" cy="62.3" r="3" fill="#58a6ff" stroke="#0d1117" stroke-width="1.5"/>
<circle cx="539.0" cy="62.0" r="3" fill="#58a6ff" stroke="#0d1117" stroke-width="1.5"/>
<circle cx="566.6" cy="61.4" r="3" fill="#58a6ff" stroke="#0d1117" stroke-width="1.5"/>
<circle cx="594.1" cy="61.0" r="3" fill="#58a6ff" stroke="#0d1117" stroke-width="1.5"/>
<circle cx="621.7" cy="60.6" r="3" fill="#58a6ff" stroke="#0d1117" stroke-width="1.5"/>
<circle cx="649.3" cy="60.1" r="3" fill="#58a6ff" stroke="#0d1117" stroke-width="1.5"/>
<circle cx="676.9" cy="59.6" r="3" fill="#58a6ff" stroke="#0d1117" stroke-width="1.5"/>
<circle cx="704.5" cy="58.9" r="3" fill="#58a6ff" stroke="#0d1117" stroke-width="1.5"/>
<circle cx="732.1" cy="58.5" r="3" fill="#58a6ff" stroke="#0d1117" stroke-width="1.5"/>
<circle cx="759.7" cy="57.6" r="3" fill="#58a6ff" stroke="#0d1117" stroke-width="1.5"/>
<circle cx="787.2" cy="57.1" r="3" fill="#58a6ff" stroke="#0d1117" stroke-width="1.5"/>
<circle cx="814.8" cy="56.8" r="3" fill="#58a6ff" stroke="#0d1117" stroke-width="1.5"/>
<circle cx="842.4" cy="55.7" r="3" fill="#58a6ff" stroke="#0d1117" stroke-width="1.5"/>
<circle cx="870.0" cy="55.0" r="3" fill="#58a6ff" stroke="#0d1117" stroke-width="1.5"/>
<path d="M70.0,172.4 L97.6,55.0 L125.2,155.6 L152.8,239.4 L180.3,272.9 L207.9,205.9 L235.5,122.1 L263.1,306.5 L290.7,256.2 L318.3,222.6 L345.9,239.4 L373.4,239.4 L401.0,256.2 L428.6,272.9 L456.2,239.4 L483.8,172.4 L511.4,205.9 L539.0,289.7 L566.6,222.6 L594.1,272.9 L621.7,256.2 L649.3,256.2 L676.9,239.4 L704.5,222.6 L732.1,256.2 L759.7,189.1 L787.2,239.4 L814.8,289.7 L842.4,138.8 L870.0,205.9 L870.0,340 L70.0,340 Z" fill="#3fb950" opacity="0.12"/>
<polyline points="70.0,172.4 97.6,55.0 125.2,155.6 152.8,239.4 180.3,272.9 207.9,205.9 235.5,122.1 263.1,306.5 290.7,256.2 318.3,222.6 345.9,239.4 373.4,239.4 401.0,256.2 428.6,272.9 456.2,239.4 483.8,172.4 511.4,205.9 539.0,289.7 566.6,222.6 594.1,272.9 621.7,256.2 649.3,256.2 676.9,239.4 704.5,222.6 732.1,256.2 759.7,189.1 787.2,239.4 814.8,289.7 842.4,138.8 870.0,205.9" fill="none" stroke="#3fb950" stroke-width="2.5" stroke-linecap="round" stroke-linejoin="round"/>
<circle cx="70.0" cy="172.4" r="3" fill="#3fb950" stroke="#0d1117" stroke-width="1.5"/>
<circle cx="97.6" cy="55.0" r="3" fill="#3fb950" stroke="#0d1117" stroke-width="1.5"/>
<circle cx="125.2" cy="155.6" r="3" fill="#3fb950" stroke="#0d1117" stroke-width="1.5"/>
<circle cx="152.8" cy="239.4" r="3" fill="#3fb950" stroke="#0d1117" stroke-width="1.5"/>
<circle cx="180.3" cy="272.9" r="3" fill="#3fb950" stroke="#0d1117" stroke-width="1.5"/>
<circle cx="207.9" cy="205.9" r="3" fill="#3fb950" stroke="#0d1117" stroke-width="1.5"/>
<circle cx="235.5" cy="122.1" r="3" fill="#3fb950" stroke="#0d1117" stroke-width="1.5"/>
<circle cx="263.1" cy="306.5" r="3" fill="#3fb950" stroke="#0d1117" stroke-width="1.5"/>
<circle cx="290.7" cy="256.2" r="3" fill="#3fb950" stroke="#0d1117" stroke-width="1.5"/>
<circle cx="318.3" cy="222.6" r="3" fill="#3fb950" stroke="#0d1117" stroke-width="1.5"/>
<circle cx="345.9" cy="239.4" r="3" fill="#3fb950" stroke="#0d1117" stroke-width="1.5"/>
<circle cx="373.4" cy="239.4" r="3" fill="#3fb950" stroke="#0d1117" stroke-width="1.5"/>
<circle cx="401.0" cy="256.2" r="3" fill="#3fb950" stroke="#0d1117" stroke-width="1.5"/>
<circle cx="428.6" cy="272.9" r="3" fill="#3fb950" stroke="#0d1117" stroke-width="1.5"/>
<circle cx="456.2" cy="239.4" r="3" fill="#3fb950" stroke="#0d1117" stroke-width="1.5"/>
<circle cx="483.8" cy="172.4" r="3" fill="#3fb950" stroke="#0d1117" stroke-width="1.5"/>
<circle cx="511.4" cy="205.9" r="3" fill="#3fb950" stroke="#0d1117" stroke-width="1.5"/>
<circle cx="539.0" cy="289.7" r="3" fill="#3fb950" stroke="#0d1117" stroke-width="1.5"/>
<circle cx="566.6" cy="222.6" r="3" fill="#3fb950" stroke="#0d1117" stroke-width="1.5"/>
<circle cx="594.1" cy="272.9" r="3" fill="#3fb950" stroke="#0d1117" stroke-width="1.5"/>
<circle cx="621.7" cy="256.2" r="3" fill="#3fb950" stroke="#0d1117" stroke-width="1.5"/>
<circle cx="649.3" cy="256.2" r="3" fill="#3fb950" stroke="#0d1117" stroke-width="1.5"/>
<circle cx="676.9" cy="239.4" r="3" fill="#3fb950" stroke="#0d1117" stroke-width="1.5"/>
<circle cx="704.5" cy="222.6" r="3" fill="#3fb950" stroke="#0d1117" stroke-width="1.5"/>
<circle cx="732.1" cy="256.2" r="3" fill="#3fb950" stroke="#0d1117" stroke-width="1.5"/>
<circle cx="759.7" cy="189.1" r="3" fill="#3fb950" stroke="#0d1117" stroke-width="1.5"/>
<circle cx="787.2" cy="239.4" r="3" fill="#3fb950" stroke="#0d1117" stroke-width="1.5"/>
<circle cx="814.8" cy="289.7" r="3" fill="#3fb950" stroke="#0d1117" stroke-width="1.5"/>
<circle cx="842.4" cy="138.8" r="3" fill="#3fb950" stroke="#0d1117" stroke-width="1.5"/>
<circle cx="870.0" cy="205.9" r="3" fill="#3fb950" stroke="#0d1117" stroke-width="1.5"/>
<text x="70.0" y="390" text-anchor="middle" fill="#8b949e" font-size="11">06-26</text>
<text x="180.3" y="390" text-anchor="middle" fill="#8b949e" font-size="11">07-02</text>
<text x="290.7" y="390" text-anchor="middle" fill="#8b949e" font-size="11">07-07</text>
<text x="401.0" y="390" text-anchor="middle" fill="#8b949e" font-size="11">07-11</text>
<text x="511.4" y="390" text-anchor="middle" fill="#8b949e" font-size="11">07-15</text>
<text x="621.7" y="390" text-anchor="middle" fill="#8b949e" font-size="11">07-19</text>
<text x="732.1" y="390" text-anchor="middle" fill="#8b949e" font-size="11">07-23</text>
<text x="842.4" y="390" text-anchor="middle" fill="#8b949e" font-size="11">07-27</text>

<rect x="640" y="402" width="12" height="12" rx="2" fill="#58a6ff"/>
<text x="656" y="412" fill="#8b949e" font-size="11">总数</text>
<rect x="750" y="402" width="12" height="12" rx="2" fill="#3fb950"/>
<text x="766" y="412" fill="#8b949e" font-size="11">每日新增</text>
</svg>