<svg xmlns="http://www.w3.org/2000/svg" viewBox="0 0 900 420" width="900" height="420">
<defs><linearGradient id="tbg" x1="0%" y1="0%" x2="0%" y2="100%">
<stop offset="0%" stop-color="#0d1117"/><stop offset="100%" stop-color="#161b22"/>
</linearGradient></defs>
<rect width="900" height="420" rx="12" fill="url(#tbg)"/>
<text x="450.0" y="28" text-anchor="middle" fill="#e6edf3" font-size="16" font-weight="bold">Awesome Claw 收录趋势</text>
<text x="450.0" y="46" text-anchor="middle" fill="#8b949e" font-size="12">总收录 2911 · 累计新增 214 · Stars 4,659,335</text>
<text x="62" y="340.0" text-anchor="end" fill="#8b949e" font-size="11" dominant-baseline="middle">0</text>
<line x1="70" y1="340.0" x2="870" y2="340.0" stroke="#21262d" stroke-dasharray="4 4"/>
<text x="62" y="268.8" text-anchor="end" fill="#8b949e" font-size="11" dominant-baseline="middle">727</text>
<line x1="70" y1="268.8" x2="870" y2="268.8" stroke="#21262d" stroke-dasharray="4 4"/>
<text x="62" y="197.5" text-anchor="end" fill="#8b949e" font-size="11" dominant-baseline="middle">1455</text>
<line x1="70" y1="197.5" x2="870" y2="197.5" stroke="#21262d" stroke-dasharray="4 4"/>
<text x="62" y="126.3" text-anchor="end" fill="#8b949e" font-size="11" dominant-baseline="middle">2183</text>
<line x1="70" y1="126.3" x2="870" y2="126.3" stroke="#21262d" stroke-dasharray="4 4"/>
<text x="62" y="55.0" text-anchor="end" fill="#8b949e" font-size="11" dominant-baseline="middle">2911</text>
<line x1="70" y1="55.0" x2="870" y2="55.0" stroke="#21262d" stroke-dasharray="4 4"/>

<line x1="70" y1="55" x2="70" y2="340" stroke="#30363d"/>
<line x1="70" y1="340" x2="870" y2="340" stroke="#30363d"/>
<path d="M70.0,75.1 L97.6,74.5 L125.2,74.1 L152.8,73.2 L180.3,72.2 L207.9,71.9 L235.5,70.9 L263.1,70.0 L290.7,69.5 L318.3,68.7 L345.9,67.6 L373.4,67.4 L401.0,66.5 L428.6,66.1 L456.2,65.6 L483.8,64.8 L511.4,63.7 L539.0,62.5 L566.6,61.9 L594.1,61.6 L621.7,60.9 L649.3,60.3 L676.9,59.2 L704.5,58.6 L732.1,57.9 L759.7,57.2 L787.2,56.6 L814.8,56.1 L842.4,55.8 L870.0,55.0 L870.0,340 L70.0,340 Z" fill="#58a6ff" opacity="0.12"/>
<polyline points="70.0,75.1 97.6,74.5 125.2,74.1 152.8,73.2 180.3,72.2 207.9,71.9 235.5,70.9 263.1,70.0 290.7,69.5 318.3,68.7 345.9,67.6 373.4,67.4 401.0,66.5 428.6,66.1 456.2,65.6 483.8,64.8 511.4,63.7 539.0,62.5 566.6,61.9 594.1,61.6 621.7,60.9 649.3,60.3 676.9,59.2 704.5,58.6 732.1,57.9 759.7,57.2 787.2,56.6 814.8,56.1 842.4,55.8 870.0,55.0" fill="none" stroke="#58a6ff" stroke-width="2.5" stroke-linecap="round" stroke-linejoin="round"/>
<circle cx="70.0" cy="75.1" r="3" fill="#58a6ff" stroke="#0d1117" stroke-width="1.5"/>
<circle cx="97.6" cy="74.5" r="3" fill="#58a6ff" stroke="#0d1117" stroke-width="1.5"/>
<circle cx="125.2" cy="74.1" r="3" fill="#58a6ff" stroke="#0d1117" stroke-width="1.5"/>
<circle cx="152.8" cy="73.2" r="3" fill="#58a6ff" stroke="#0d1117" stroke-width="1.5"/>
<circle cx="180.3" cy="72.2" r="3" fill="#58a6ff" stroke="#0d1117" stroke-width="1.5"/>
<circle cx="207.9" cy="71.9" r="3" fill="#58a6ff" stroke="#0d1117" stroke-width="1.5"/>
<circle cx="235.5" cy="70.9" r="3" fill="#58a6ff" stroke="#0d1117" stroke-width="1.5"/>
<circle cx="263.1" cy="70.0" r="3" fill="#58a6ff" stroke="#0d1117" stroke-width="1.5"/>
<circle cx="290.7" cy="69.5" r="3" fill="#58a6ff" stroke="#0d1117" stroke-width="1.5"/>
<circle cx="318.3" cy="68.7" r="3" fill="#58a6ff" stroke="#0d1117" stroke-width="1.5"/>
<circle cx="345.9" cy="67.6" r="3" fill="#58a6ff" stroke="#0d1117" stroke-width="1.5"/>
<circle cx="373.4" cy="67.4" r="3" fill="#58a6ff" stroke="#0d1117" stroke-width="1.5"/>
<circle cx="401.0" cy="66.5" r="3" fill="#58a6ff" stroke="#0d1117" stroke-width="1.5"/>
<circle cx="428.6" cy="66.1" r="3" fill="#58a6ff" stroke="#0d1117" stroke-width="1.5"/>
<circle cx="456.2" cy="65.6" r="3" fill="#58a6ff" stroke="#0d1117" stroke-width="1.5"/>
<circle cx="483.8" cy="64.8" r="3" fill="#58a6ff" stroke="#0d1117" stroke-width="1.5"/>
<circle cx="511.4" cy="63.7" r="3" fill="#58a6ff" stroke="#0d1117" stroke-width="1.5"/>
<circle cx="539.0" cy="62.5" r="3" fill="#58a6ff" stroke="#0d1117" stroke-width="1.5"/>
<circle cx="566.6" cy="61.9" r="3" fill="#58a6ff" stroke="#0d1117" stroke-width="1.5"/>
<circle cx="594.1" cy="61.6" r="3" fill="#58a6ff" stroke="#0d1117" stroke-width="1.5"/>
<circle cx="621.7" cy="60.9" r="3" fill="#58a6ff" stroke="#0d1117" stroke-width="1.5"/>
<circle cx="649.3" cy="60.3" r="3" fill="#58a6ff" stroke="#0d1117" stroke-width="1.5"/>
<circle cx="676.9" cy="59.2" r="3" fill="#58a6ff" stroke="#0d1117" stroke-width="1.5"/>
<circle cx="704.5" cy="58.6" r="3" fill="#58a6ff" stroke="#0d1117" stroke-width="1.5"/>
<circle cx="732.1" cy="57.9" r="3" fill="#58a6ff" stroke="#0d1117" stroke-width="1.5"/>
<circle cx="759.7" cy="57.2" r="3" fill="#58a6ff" stroke="#0d1117" stroke-width="1.5"/>
<circle cx="787.2" cy="56.6" r="3" fill="#58a6ff" stroke="#0d1117" stroke-width="1.5"/>
<circle cx="814.8" cy="56.1" r="3" fill="#58a6ff" stroke="#0d1117" stroke-width="1.5"/>
<circle cx="842.4" cy="55.8" r="3" fill="#58a6ff" stroke="#0d1117" stroke-width="1.5"/>
<circle cx="870.0" cy="55.0" r="3" fill="#58a6ff" stroke="#0d1117" stroke-width="1.5"/>
<path d="M70.0,126.2 L97.6,197.5 L125.2,245.0 L152.8,126.2 L180.3,102.5 L207.9,268.8 L235.5,78.8 L263.1,126.2 L290.7,221.2 L318.3,150.0 L345.9,78.8 L373.4,292.5 L401.0,102.5 L428.6,245.0 L456.2,221.2 L483.8,150.0 L511.4,78.8 L539.0,55.0 L566.6,173.8 L594.1,268.8 L621.7,173.8 L649.3,197.5 L676.9,78.8 L704.5,197.5 L732.1,173.8 L759.7,150.0 L787.2,197.5 L814.8,221.2 L842.4,268.8 L870.0,150.0 L870.0,340 L70.0,340 Z" fill="#3fb950" opacity="0.12"/>
<polyline points="70.0,126.2 97.6,197.5 125.2,245.0 152.8,126.2 180.3,102.5 207.9,268.8 235.5,78.8 263.1,126.2 290.7,221.2 318.3,150.0 345.9,78.8 373.4,292.5 401.0,102.5 428.6,245.0 456.2,221.2 483.8,150.0 511.4,78.8 539.0,55.0 566.6,173.8 594.1,268.8 621.7,173.8 649.3,197.5 676.9,78.8 704.5,197.5 732.1,173.8 759.7,150.0 787.2,197.5 814.8,221.2 842.4,268.8 870.0,150.0" fill="none" stroke="#3fb950" stroke-width="2.5" stroke-linecap="round" stroke-linejoin="round"/>
<circle cx="70.0" cy="126.2" r="3" fill="#3fb950" stroke="#0d1117" stroke-width="1.5"/>
<circle cx="97.6" cy="197.5" r="3" fill="#3fb950" stroke="#0d1117" stroke-width="1.5"/>
<circle cx="125.2" cy="245.0" r="3" fill="#3fb950" stroke="#0d1117" stroke-width="1.5"/>
<circle cx="152.8" cy="126.2" r="3" fill="#3fb950" stroke="#0d1117" stroke-width="1.5"/>
<circle cx="180.3" cy="102.5" r="3" fill="#3fb950" stroke="#0d1117" stroke-width="1.5"/>
<circle cx="207.9" cy="268.8" r="3" fill="#3fb950" stroke="#0d1117" stroke-width="1.5"/>
<circle cx="235.5" cy="78.8" r="3" fill="#3fb950" stroke="#0d1117" stroke-width="1.5"/>
<circle cx="263.1" cy="126.2" r="3" fill="#3fb950" stroke="#0d1117" stroke-width="1.5"/>
<circle cx="290.7" cy="221.2" r="3" fill="#3fb950" stroke="#0d1117" stroke-width="1.5"/>
<circle cx="318.3" cy="150.0" r="3" fill="#3fb950" stroke="#0d1117" stroke-width="1.5"/>
<circle cx="345.9" cy="78.8" r="3" fill="#3fb950" stroke="#0d1117" stroke-width="1.5"/>
<circle cx="373.4" cy="292.5" r="3" fill="#3fb950" stroke="#0d1117" stroke-width="1.5"/>
<circle cx="401.0" cy="102.5" r="3" fill="#3fb950" stroke="#0d1117" stroke-width="1.5"/>
<circle cx="428.6" cy="245.0" r="3" fill="#3fb950" stroke="#0d1117" stroke-width="1.5"/>
<circle cx="456.2" cy="221.2" r="3" fill="#3fb950" stroke="#0d1117" stroke-width="1.5"/>
<circle cx="483.8" cy="150.0" r="3" fill="#3fb950" stroke="#0d1117" stroke-width="1.5"/>
<circle cx="511.4" cy="78.8" r="3" fill="#3fb950" stroke="#0d1117" stroke-width="1.5"/>
<circle cx="539.0" cy="55.0" r="3" fill="#3fb950" stroke="#0d1117" stroke-width="1.5"/>
<circle cx="566.6" cy="173.8" r="3" fill="#3fb950" stroke="#0d1117" stroke-width="1.5"/>
<circle cx="594.1" cy="268.8" r="3" fill="#3fb950" stroke="#0d1117" stroke-width="1.5"/>
<circle cx="621.7" cy="173.8" r="3" fill="#3fb950" stroke="#0d1117" stroke-width="1.5"/>
<circle cx="649.3" cy="197.5" r="3" fill="#3fb950" stroke="#0d1117" stroke-width="1.5"/>
<circle cx="676.9" cy="78.8" r="3" fill="#3fb950" stroke="#0d1117" stroke-width="1.5"/>
<circle cx="704.5" cy="197.5" r="3" fill="#3fb950" stroke="#0d1117" stroke-width="1.5"/>
<circle cx="732.1" cy="173.8" r="3" fill="#3fb950" stroke="#0d1117" stroke-width="1.5"/>
<circle cx="759.7" cy="150.0" r="3" fill="#3fb950" stroke="#0d1117" stroke-width="1.5"/>
<circle cx="787.2" cy="197.5" r="3" fill="#3fb950" stroke="#0d1117" stroke-width="1.5"/>
<circle cx="814.8" cy="221.2" r="3" fill="#3fb950" stroke="#0d1117" stroke-width="1.5"/>
<circle cx="842.4" cy="268.8" r="3" fill="#3fb950" stroke="#0d1117" stroke-width="1.5"/>
<circle cx="870.0" cy="150.0" r="3" fill="#3fb950" stroke="#0d1117" stroke-width="1.5"/>
<text x="70.0" y="390" text-anchor="middle" fill="#8b949e" font-size="11">05-26</text>
<text x="180.3" y="390" text-anchor="middle" fill="#8b949e" font-size="11">05-30</text>
<text x="290.7" y="390" text-anchor="middle" fill="#8b949e" font-size="11">06-03</text>
<text x="401.0" y="390" text-anchor="middle" fill="#8b949e" font-size="11">06-07</text>
<text x="511.4" y="390" text-anchor="middle" fill="#8b949e" font-size="11">06-11</text>
<text x="621.7" y="390" text-anchor="middle" fill="#8b949e" font-size="11">06-15</text>
<text x="732.1" y="390" text-anchor="middle" fill="#8b949e" font-size="11">06-19</text>
<text x="842.4" y="390" text-anchor="middle" fill="#8b949e" font-size="11">06-23</text>

<rect x="640" y="402" width="12" height="12" rx="2" fill="#58a6ff"/>
<text x="656" y="412" fill="#8b949e" font-size="11">总数</text>
<rect x="750" y="402" width="12" height="12" rx="2" fill="#3fb950"/>
<text x="766" y="412" fill="#8b949e" font-size="11">每日新增</text>
</svg>